<?xml version="1.0" ?><!DOCTYPE svg  PUBLIC '-//W3C//DTD SVG 1.1//EN'  'http://www.w3.org/Graphics/SVG/1.1/DTD/svg11.dtd'><svg enable-background="new 0 0 128 128" height="128px" version="1.1" viewBox="0 0 128 128" width="128px" xml:space="preserve" xmlns="http://www.w3.org/2000/svg" xmlns:xlink="http://www.w3.org/1999/xlink"><g id="Layer_2"/><g id="Layer_1"><g><path d="M104.724,40.342c-2.807,1.245-5.822,2.087-8.989,2.465c3.231-1.937,5.713-5.004,6.881-8.658    c-3.024,1.793-6.373,3.096-9.938,3.797c-2.855-3.042-6.922-4.942-11.423-4.942c-8.644,0-15.651,7.007-15.651,15.65    c0,1.227,0.138,2.42,0.405,3.566c-13.006-0.652-24.538-6.883-32.257-16.352c-1.347,2.312-2.119,5-2.119,7.868    c0,5.43,2.763,10.22,6.962,13.026c-2.565-0.081-4.979-0.785-7.089-1.957c-0.001,0.064-0.001,0.13-0.001,0.196    c0,7.583,5.395,13.909,12.554,15.346c-1.313,0.357-2.696,0.549-4.123,0.549c-1.008,0-1.989-0.098-2.944-0.281    c1.991,6.218,7.771,10.742,14.62,10.869c-5.356,4.197-12.104,6.699-19.437,6.699c-1.264,0-2.509-0.073-3.733-0.219    c6.926,4.44,15.152,7.031,23.99,7.031c28.787,0,44.528-23.848,44.528-44.528c0-0.679-0.015-1.354-0.045-2.024    C99.973,46.237,102.626,43.481,104.724,40.342z" fill="#48C0EB"/></g></g></svg>